<?xml version="1.0" encoding="UTF-8" standalone="no"?>
<!-- Created with Inkscape (http://www.inkscape.org/) -->

<svg
   xmlns:dc="http://purl.org/dc/elements/1.1/"
   xmlns:cc="http://creativecommons.org/ns#"
   xmlns:rdf="http://www.w3.org/1999/02/22-rdf-syntax-ns#"
   xmlns:svg="http://www.w3.org/2000/svg"
   xmlns="http://www.w3.org/2000/svg"
   xmlns:sodipodi="http://sodipodi.sourceforge.net/DTD/sodipodi-0.dtd"
   xmlns:inkscape="http://www.inkscape.org/namespaces/inkscape"
   width="10.525192mm"
   height="9.968152mm"
   viewBox="0 0 10.525193 9.9681509"
   version="1.1"
   id="svg5889"
   inkscape:version="0.92.3 (2405546, 2018-03-11)"
   sodipodi:docname="cake.svg">
  <defs
     id="defs5883" />
  <sodipodi:namedview
     id="base"
     pagecolor="#ffffff"
     bordercolor="#666666"
     borderopacity="1.0"
     inkscape:pageopacity="0.0"
     inkscape:pageshadow="2"
     inkscape:zoom="3.06"
     inkscape:cx="94.715813"
     inkscape:cy="16.812517"
     inkscape:document-units="mm"
     inkscape:current-layer="layer1"
     showgrid="false"
     fit-margin-top="1"
     fit-margin-bottom="1"
     fit-margin-right="1"
     fit-margin-left="1"
     inkscape:window-width="1853"
     inkscape:window-height="1025"
     inkscape:window-x="67"
     inkscape:window-y="27"
     inkscape:window-maximized="1" />
  <metadata
     id="metadata5886">
    <rdf:RDF>
      <cc:Work
         rdf:about="">
        <dc:format>image/svg+xml</dc:format>
        <dc:type
           rdf:resource="http://purl.org/dc/dcmitype/StillImage" />
        <dc:title></dc:title>
      </cc:Work>
    </rdf:RDF>
  </metadata>
  <g
     inkscape:label="Capa 1"
     inkscape:groupmode="layer"
     id="layer1"
     transform="translate(-80.773109,-115.94281)">
    <g
       transform="matrix(0.35277777,0,0,-0.35277777,-42.935985,229.79345)"
       id="g8717">
      <g
         transform="translate(373.832,305.6523)"
         id="g628">
        <path
           inkscape:connector-curvature="0"
           id="path630"
           style="fill:#e7ad4f;fill-opacity:1;fill-rule:nonzero;stroke:none"
           d="m 0,0 c -0.082,0.001 -0.131,0.004 -0.131,0.004 0,0.001 0,0.002 0.002,0.003 -0.113,0.01 -0.223,0.025 -0.336,0.045 l -1.193,-7.275 c 0,-0.62 -0.625,-1.124 -0.938,-1.124 h 1.891 c 0.31,0 0.935,0.504 0.935,1.124 L 1.453,0.22 C 1.057,0.072 0.629,-0.011 0.184,-0.011 0.123,-0.011 0.062,-0.003 0,0" />
      </g>
      <g
         transform="translate(373.2812,310.3472)"
         id="g632">
        <path
           inkscape:connector-curvature="0"
           id="path634"
           style="fill:#ecb85e;fill-opacity:1;fill-rule:nonzero;stroke:none"
           d="m 0,0 h -17.273 c -0.393,0 -0.711,-0.382 -0.711,-0.853 l 0.759,-4.622 1.059,-6.442 c 0.127,-0.867 0.561,-1.125 0.918,-1.125 h 13.203 c 0.313,0 0.938,0.504 0.938,1.125 l 1.193,7.274 0.625,3.79 C 0.711,-0.382 0.393,0 0,0" />
      </g>
      <g
         transform="translate(372.1738,298.4297)"
         id="g636">
        <path
           inkscape:connector-curvature="0"
           id="path638"
           style="fill:#f7c771;fill-opacity:1;fill-rule:nonzero;stroke:none"
           d="M 0,0 1.193,7.274 C 0.883,7.33 0.584,7.425 0.303,7.555 -0.168,7.337 -0.691,7.212 -1.248,7.212 c -0.51,0 -0.994,0.103 -1.438,0.289 C -3.717,6.06 -5.562,5.099 -7.67,5.099 c -1.984,0 -3.736,0.851 -4.793,2.154 -0.66,-0.589 -1.57,-0.955 -2.578,-0.955 -0.373,0 -0.734,0.05 -1.076,0.144 L -15.059,0 c 0.127,-0.866 0.561,-1.125 0.918,-1.125 H -0.937 C -0.625,-1.125 0,-0.621 0,0" />
      </g>
      <g
         transform="translate(374.5078,310.5225)"
         id="g640">
        <path
           inkscape:connector-curvature="0"
           id="path642"
           style="fill:#83411e;fill-opacity:1;fill-rule:nonzero;stroke:none"
           d="M 0,0 Z M -0.289,0.346 C -0.275,0.329 -0.258,0.311 -0.242,0.292 -0.258,0.311 -0.275,0.329 -0.289,0.346 M -0.553,0.622 C -0.535,0.606 -0.52,0.589 -0.502,0.572 -0.52,0.589 -0.535,0.606 -0.553,0.622 M -0.812,0.867 C -0.807,0.862 -0.803,0.858 -0.799,0.854 -0.803,0.858 -0.807,0.862 -0.812,0.867 M -1.396,1.336 C -1.387,1.327 -1.371,1.319 -1.361,1.31 -1.371,1.319 -1.387,1.327 -1.396,1.336 M -1.67,1.525 c 0.014,-0.009 0.027,-0.018 0.041,-0.028 -0.014,0.01 -0.027,0.019 -0.041,0.028 m -0.256,0.162 c 0.008,-0.002 0.01,-0.005 0.014,-0.009 -0.004,0.004 -0.006,0.007 -0.014,0.009 m -0.513,0.289 c 0.007,-0.005 0.017,-0.01 0.027,-0.015 -0.01,0.005 -0.02,0.01 -0.027,0.015 M -2.662,2.084 C -2.65,2.08 -2.639,2.073 -2.627,2.068 -2.639,2.073 -2.65,2.08 -2.662,2.084 M -2.848,2.17 C -2.844,2.168 -2.836,2.166 -2.83,2.163 -2.836,2.166 -2.844,2.168 -2.848,2.17 M -3.172,2.304 C -3.164,2.301 -3.156,2.298 -3.148,2.297 -3.156,2.298 -3.164,2.301 -3.172,2.304 M -3.271,2.341 C -3.266,2.339 -3.26,2.336 -3.252,2.333 -3.26,2.336 -3.266,2.339 -3.271,2.341 M -3.33,2.361 C -3.326,2.36 -3.322,2.36 -3.32,2.358 -3.322,2.36 -3.326,2.36 -3.33,2.361" />
      </g>
      <g
         transform="translate(375.1699,310.3472)"
         id="g644">
        <path
           inkscape:connector-curvature="0"
           id="path646"
           style="fill:#d7973a;fill-opacity:1;fill-rule:nonzero;stroke:none"
           d="m 0,0 h -1.889 c 0.393,0 0.711,-0.382 0.711,-0.853 l -0.625,-3.79 c 0.114,-0.02 0.223,-0.035 0.336,-0.045 -0.002,-0.001 -0.002,-0.002 -0.002,-0.003 0,0 0.049,-0.003 0.131,-0.004 0.063,-0.003 0.123,-0.011 0.184,-0.011 0.445,0 0.873,0.083 1.269,0.231 l 0.594,3.622 C 0.709,-0.382 0.393,0 0,0" />
      </g>
      <g
         transform="translate(359.7109,305.6831)"
         id="g648">
        <path
           inkscape:connector-curvature="0"
           id="path650"
           style="fill:#ecb85e;fill-opacity:1;fill-rule:nonzero;stroke:none"
           d="m 0,0 c 1.057,-1.303 2.809,-2.155 4.793,-2.155 2.107,0 3.953,0.961 4.984,2.403 0.444,-0.186 0.928,-0.29 1.438,-0.29 0.556,0 1.08,0.126 1.551,0.343 0.281,-0.129 0.58,-0.224 0.89,-0.28 l 0.625,3.79 c 0,0.471 -0.318,0.853 -0.711,0.853 H -3.703 c -0.393,0 -0.711,-0.382 -0.711,-0.853 l 0.76,-4.622 c 0.341,-0.094 0.703,-0.145 1.076,-0.145 C -1.57,-0.956 -0.66,-0.59 0,0" />
      </g>
      <g
         transform="translate(371.1582,313.687)"
         id="g652">
        <path
           inkscape:connector-curvature="0"
           id="path654"
           style="fill:#975026;fill-opacity:1;fill-rule:nonzero;stroke:none"
           d="M 0,0 C -0.844,4.064 -3.363,5.628 -5.59,6.192 -5.689,6.187 -5.785,6.185 -5.883,6.176 -9.584,5.875 -12.334,3.665 -14.184,1.461 c -0.644,-0.315 -1.293,-0.819 -1.851,-1.487 -0.965,-1.158 -1.404,-2.495 -1.244,-3.497 -0.237,-0.427 -0.373,-0.905 -0.373,-1.413 0,-1.783 1.625,-3.227 3.627,-3.227 1.007,0 1.918,0.365 2.578,0.955 1.056,-1.302 2.808,-2.155 4.793,-2.155 2.107,0 3.953,0.961 4.984,2.404 0.443,-0.187 0.928,-0.29 1.438,-0.29 0.556,0 1.08,0.124 1.55,0.342 0.469,-0.218 0.989,-0.342 1.539,-0.342 0.581,0 1.127,0.139 1.616,0.379 C 5.184,-1.63 0,0 0,0" />
      </g>
      <g
         transform="translate(354.9121,308.0103)"
         id="g656">
        <path
           inkscape:connector-curvature="0"
           id="path658"
           style="fill:#a35b35;fill-opacity:1;fill-rule:nonzero;stroke:none"
           d="M 0,0 C 0.029,0.563 0.203,1.034 0.477,1.423 0.4,3.373 1.088,5.233 2.793,5.756 3.033,7.107 3.139,7.772 3.555,8.702 3.006,8.197 2.508,7.667 2.063,7.138 1.418,6.823 0.77,6.319 0.211,5.65 -0.754,4.493 -1.193,3.155 -1.033,2.154 -1.27,1.727 -1.406,1.249 -1.406,0.741 c 0,-1.425 1.039,-2.633 2.478,-3.059 C 0.402,-1.734 -0.047,-0.857 0,0" />
      </g>
      <g
         transform="translate(375.627,313.3716)"
         id="g660">
        <path
           inkscape:connector-curvature="0"
           id="path662"
           style="fill:#83411e;fill-opacity:1;fill-rule:nonzero;stroke:none"
           d="m 0,0 c -1.818,3.018 -5.094,6.759 -10.059,6.508 2.227,-0.565 4.747,-2.129 5.59,-6.193 0,0 2.004,-0.631 3.35,-2.368 0.094,-0.133 1.865,-2.704 -0.807,-4.866 0,0 1.071,-0.081 1.932,0.4 0,-0.012 0,-0.023 -0.002,-0.035 1.207,0.596 2.041,1.838 2.041,3.276 C 2.045,-1.837 1.211,-0.596 0,0" />
      </g>
      <g
         transform="translate(363.4629,310.3159)"
         id="g664">
        <path
           inkscape:connector-curvature="0"
           id="path666"
           style="fill:#631e17;fill-opacity:1;fill-rule:nonzero;stroke:none"
           d="M 0,0 C 0,0 -0.051,1.567 -1.189,1.365 -2.326,1.163 -2.705,-0.025 -2.58,-0.81 -2.453,-1.593 -0.152,-0.937 0,0" />
      </g>
      <g
         transform="translate(362.5039,311.4116)"
         id="g668">
        <path
           inkscape:connector-curvature="0"
           id="path670"
           style="fill:#c16c42;fill-opacity:1;fill-rule:nonzero;stroke:none"
           d="m 0,0 c 0.053,-0.093 -0.156,-0.315 -0.465,-0.496 -0.314,-0.181 -0.609,-0.252 -0.664,-0.159 -0.055,0.094 0.154,0.316 0.467,0.496 C -0.352,0.021 -0.055,0.093 0,0" />
      </g>
      <g
         transform="translate(374.7949,314.3911)"
         id="g672">
        <path
           inkscape:connector-curvature="0"
           id="path674"
           style="fill:#631e17;fill-opacity:1;fill-rule:nonzero;stroke:none"
           d="M 0,0 C 0.752,1.365 -0.619,1.666 -1.621,1.102 -2.619,0.536 -2.381,0 -2.381,0 l 0.91,-0.662 c 0,0 0.942,-0.295 1.471,0.662" />
      </g>
      <g
         transform="translate(374.0449,315.4497)"
         id="g676">
        <path
           inkscape:connector-curvature="0"
           id="path678"
           style="fill:#c16c42;fill-opacity:1;fill-rule:nonzero;stroke:none"
           d="m 0,0 c 0.059,-0.116 -0.191,-0.359 -0.557,-0.542 -0.367,-0.184 -0.711,-0.239 -0.769,-0.122 -0.059,0.116 0.193,0.357 0.556,0.542 C -0.402,0.062 -0.059,0.116 0,0" />
      </g>
      <g
         transform="translate(368.2344,315.6401)"
         id="g680">
        <path
           inkscape:connector-curvature="0"
           id="path682"
           style="fill:#83411e;fill-opacity:1;fill-rule:nonzero;stroke:none"
           d="M 0,0 C -0.139,-0.506 -0.756,-0.101 -1.687,0.157 -2.619,0.414 -3.512,0.423 -3.373,0.928 -3.234,1.434 -2.365,1.636 -1.434,1.38 -0.504,1.124 0.139,0.505 0,0" />
      </g>
      <g
         transform="translate(365.5879,316.5361)"
         id="g684">
        <path
           inkscape:connector-curvature="0"
           id="path686"
           style="fill:#631e17;fill-opacity:1;fill-rule:nonzero;stroke:none"
           d="m 0,0 c 0,0 1.187,-0.088 1.818,-0.739 0,0 0.557,1.346 -0.48,1.65 C 0.303,1.214 0,0 0,0" />
      </g>
      <g
         transform="translate(366.9414,317.1323)"
         id="g688">
        <path
           inkscape:connector-curvature="0"
           id="path690"
           style="fill:#c16c42;fill-opacity:1;fill-rule:nonzero;stroke:none"
           d="m 0,0 c 0,-0.13 -0.176,-0.236 -0.395,-0.236 -0.218,0 -0.394,0.106 -0.394,0.236 0,0.13 0.176,0.235 0.394,0.235 C -0.176,0.235 0,0.13 0,0" />
      </g>
      <g
         transform="translate(360.6543,317.75)"
         id="g692">
        <path
           inkscape:connector-curvature="0"
           id="path694"
           style="fill:#631e17;fill-opacity:1;fill-rule:nonzero;stroke:none"
           d="m 0,0 c 0,0 -0.91,0.556 -1.643,0 -0.783,-0.596 -0.707,-1.353 -0.279,-1.953 0,0 0.787,1.599 1.922,1.953" />
      </g>
      <g
         transform="translate(359.6055,317.8491)"
         id="g696">
        <path
           inkscape:connector-curvature="0"
           id="path698"
           style="fill:#c16c42;fill-opacity:1;fill-rule:nonzero;stroke:none"
           d="m 0,0 c 0.033,-0.057 -0.096,-0.193 -0.287,-0.304 -0.192,-0.111 -0.371,-0.154 -0.406,-0.098 -0.034,0.058 0.095,0.194 0.287,0.306 C -0.215,0.013 -0.035,0.057 0,0" />
      </g>
      <g
         transform="translate(362.0391,314.6641)"
         id="g700">
        <path
           inkscape:connector-curvature="0"
           id="path702"
           style="fill:#af633c;fill-opacity:1;fill-rule:nonzero;stroke:none"
           d="m 0,0 c -1.168,-1.253 -2.641,-1.779 -3.293,-1.172 -0.652,0.606 -0.232,2.114 0.934,3.368 1.168,1.253 2.642,1.779 3.295,1.172 C 1.588,2.761 1.168,1.253 0,0" />
      </g>
      <g
         transform="translate(362.8652,313.7217)"
         id="g704">
        <path
           inkscape:connector-curvature="0"
           id="path706"
           style="fill:#975026;fill-opacity:1;fill-rule:nonzero;stroke:none"
           d="m 0,0 c -1.484,-1.594 -3.357,-2.261 -4.186,-1.489 -0.828,0.77 -0.296,2.687 1.188,4.281 1.484,1.593 3.357,2.261 4.187,1.489 C 2.016,3.511 1.484,1.593 0,0" />
      </g>
    </g>
  </g>
</svg>
