<?xml version="1.0" ?><svg id="Layer_1" style="enable-background:new 0 0 66 66;" version="1.1" viewBox="0 0 66 66" xml:space="preserve" xmlns="http://www.w3.org/2000/svg" xmlns:xlink="http://www.w3.org/1999/xlink"><g><path d="M64,44.3h-0.9v-20c0-0.2,0-0.4,0-0.5c-0.2-4.2-2.2-8.1-5.6-10.9L46,3.7c-2-1.9-5.1-2-7.1-0.2c-1.2,1.1-1.5,2.6-0.8,4.4   c-0.4-0.1-0.8-0.1-1.1-0.1c-1.9,0-3.7,0.8-4.8,2.3c-1.2-1.4-2.9-2.3-4.8-2.3c-0.5,0-1,0.1-1.4,0.2c0.8-1.8,0.5-3.4-0.7-4.5   C23.1,1.7,20,1.8,18,3.7L6.6,12.8C3.2,15.5,1.2,19.5,1,23.7c0,0.2,0,0.4,0,0.5v21c0,0,0,0,0,0v17c0,0.5,0.5,1,1,1c0.6,0,1-0.5,1-1   v-16l15,0v16.5c0,0.6,0.4,1,1,1c0.5,0,1-0.4,1-1V45.3c0,0,0-0.1,0-0.1c0,0,0-0.1,0-0.1c-0.9-3-0.2-6.3,1.9-8.6l7.3-8   c0.6-0.6,0.8-1.5,0.6-2.3c0.6,0.5,1.1,0.9,1.7,1.4c0.1,0.1,0.1,0.1,0.2,0.1c0.1,0.1,0.3,0.1,0.4,0.1c0.2,0,0.4-0.1,0.6-0.2   c0.5-0.4,1-0.8,1.4-1.2c-0.1,0.7,0.2,1.5,0.7,2.1l7.3,8c1.9,2.1,2.7,5.1,2.1,7.9h-1.1c-0.6,0-1,0.5-1,1v13.2c0,0.6,0.4,1,1,1H64   c0.6,0,1-0.4,1-1V45.3C65,44.7,64.6,44.3,64,44.3z M26.4,23c-0.3-0.1-0.6-0.1-0.9-0.2c-1.5-0.1-3.1,0.5-4.2,1.5l-3.8,3.9   c-0.7,0.6-1.5,0.9-2.4,0.8c-0.9-0.2-1.6-0.7-2-1.6l-0.8-1.6c-0.1-0.1-0.1-0.2-0.1-0.3c-1-2.6,0-5.6,2.3-7.3l6.8-5.1   c0,0.1-0.1,0.1-0.1,0.1C20.6,15.8,22.4,19.1,26.4,23z M43.3,13.4l6.4,4.8c2.3,1.7,3.2,4.7,2.3,7.3c0,0.1-0.1,0.2-0.1,0.3l-0.7,1.6   c-0.4,0.8-1.1,1.4-2,1.6c-0.9,0.2-1.8-0.1-2.4-0.8l-3.8-3.9c-1.1-1.1-2.6-1.7-4.2-1.5c-0.2,0-0.4,0-0.6,0.1   C41.9,19.1,43.7,15.9,43.3,13.4z M43.7,35.1l-7.3-8c-0.2-0.2-0.2-0.6,0-0.9c0.6-0.8,1.5-1.3,2.4-1.3c1-0.1,1.9,0.3,2.6,1l3.9,3.9   c1.1,1.1,2.7,1.6,4.2,1.3c1.5-0.3,2.8-1.3,3.5-2.7l0.8-1.6c0.1-0.1,0.1-0.3,0.2-0.5c1.3-3.4,0.1-7.4-2.9-9.6l-8.2-6.2   c-0.9-0.7-1.6-1.4-2.1-2.2c-0.7-1-1.3-2.5-0.4-3.3c1.3-1.1,3.3-1.1,4.5,0.1c0,0,0,0.1,0.1,0.1l11.5,9.2c2.9,2.4,4.7,5.8,4.8,9.4   c0,0.1,0,0.3,0,0.5v20H46.3C46.9,41,45.9,37.6,43.7,35.1z M63,57.5H44.2V46.3H63V57.5z"/><path d="M44.2,46.3v11.2H63V46.3H44.2z M49.6,53.5c0,0.5-0.4,1-1,1c-0.5,0-1-0.5-1-1v-3c0-0.5,0.5-1,1-1c0.6,0,1,0.5,1,1V53.5z"/><path d="M49.6,50.6v3c0,0.5-0.4,1-1,1c-0.5,0-1-0.5-1-1v-3c0-0.5,0.5-1,1-1C49.2,49.6,49.6,50,49.6,50.6z"/></g></svg>