<?xml version="1.0" encoding="UTF-8" standalone="no"?>
<svg
   xmlns:dc="http://purl.org/dc/elements/1.1/"
   xmlns:cc="http://creativecommons.org/ns#"
   xmlns:rdf="http://www.w3.org/1999/02/22-rdf-syntax-ns#"
   xmlns:svg="http://www.w3.org/2000/svg"
   xmlns="http://www.w3.org/2000/svg"
   xmlns:sodipodi="http://sodipodi.sourceforge.net/DTD/sodipodi-0.dtd"
   xmlns:inkscape="http://www.inkscape.org/namespaces/inkscape"
   width="64pt"
   height="64pt"
   viewBox="0 0 22.577778 22.577778"
   version="1.1"
   id="svg831"
   inkscape:version="1.0 (4035a4fb49, 2020-05-01)"
   sodipodi:docname="21 - Cappucino.svg">
  <defs
     id="defs825">
    <pattern
       id="EMFhbasepattern"
       patternUnits="userSpaceOnUse"
       width="6"
       height="6"
       x="0"
       y="0" />
    <pattern
       id="EMFhbasepattern-9"
       patternUnits="userSpaceOnUse"
       width="6"
       height="6"
       x="0"
       y="0" />
    <pattern
       id="EMFhbasepattern-0"
       patternUnits="userSpaceOnUse"
       width="6"
       height="6"
       x="0"
       y="0" />
    <pattern
       id="EMFhbasepattern-7"
       patternUnits="userSpaceOnUse"
       width="6"
       height="6"
       x="0"
       y="0" />
    <pattern
       id="EMFhbasepattern-2"
       patternUnits="userSpaceOnUse"
       width="6"
       height="6"
       x="0"
       y="0" />
    <pattern
       id="EMFhbasepattern-98"
       patternUnits="userSpaceOnUse"
       width="6"
       height="6"
       x="0"
       y="0" />
    <pattern
       id="EMFhbasepattern-6"
       patternUnits="userSpaceOnUse"
       width="6"
       height="6"
       x="0"
       y="0" />
    <pattern
       id="EMFhbasepattern-01"
       patternUnits="userSpaceOnUse"
       width="6"
       height="6"
       x="0"
       y="0" />
    <pattern
       id="EMFhbasepattern-07"
       patternUnits="userSpaceOnUse"
       width="6"
       height="6"
       x="0"
       y="0" />
    <pattern
       id="EMFhbasepattern-8"
       patternUnits="userSpaceOnUse"
       width="6"
       height="6"
       x="0"
       y="0" />
    <pattern
       id="EMFhbasepattern-4"
       patternUnits="userSpaceOnUse"
       width="6"
       height="6"
       x="0"
       y="0" />
    <pattern
       id="EMFhbasepattern-40"
       patternUnits="userSpaceOnUse"
       width="6"
       height="6"
       x="0"
       y="0" />
    <pattern
       id="EMFhbasepattern-08"
       patternUnits="userSpaceOnUse"
       width="6"
       height="6"
       x="0"
       y="0" />
    <pattern
       id="EMFhbasepattern-04"
       patternUnits="userSpaceOnUse"
       width="6"
       height="6"
       x="0"
       y="0" />
    <pattern
       id="EMFhbasepattern-014"
       patternUnits="userSpaceOnUse"
       width="6"
       height="6"
       x="0"
       y="0" />
    <pattern
       id="EMFhbasepattern-27"
       patternUnits="userSpaceOnUse"
       width="6"
       height="6"
       x="0"
       y="0" />
    <pattern
       id="EMFhbasepattern-09"
       patternUnits="userSpaceOnUse"
       width="6"
       height="6"
       x="0"
       y="0" />
    <pattern
       id="EMFhbasepattern-5"
       patternUnits="userSpaceOnUse"
       width="6"
       height="6"
       x="0"
       y="0" />
    <pattern
       id="EMFhbasepattern-018"
       patternUnits="userSpaceOnUse"
       width="6"
       height="6"
       x="0"
       y="0" />
  </defs>
  <sodipodi:namedview
     id="base"
     pagecolor="#ffffff"
     bordercolor="#666666"
     borderopacity="1.0"
     inkscape:pageopacity="0.0"
     inkscape:pageshadow="2"
     inkscape:zoom="6.2578125"
     inkscape:cx="42.666667"
     inkscape:cy="42.666667"
     inkscape:document-units="pt"
     inkscape:current-layer="layer1"
     showgrid="false"
     units="pt"
     inkscape:window-width="1366"
     inkscape:window-height="705"
     inkscape:window-x="-8"
     inkscape:window-y="-8"
     inkscape:window-maximized="1"
     inkscape:pagecheckerboard="true"
     inkscape:showpageshadow="false"
     inkscape:object-paths="true"
     inkscape:snap-intersection-paths="true"
     inkscape:snap-smooth-nodes="true"
     inkscape:snap-midpoints="true"
     showguides="true"
     inkscape:snap-bbox="true"
     inkscape:bbox-nodes="true"
     inkscape:snap-nodes="false"
     inkscape:snap-global="true"
     inkscape:document-rotation="0">
    <inkscape:grid
       type="xygrid"
       id="grid1378" />
    <sodipodi:guide
       position="0.97013831,21.607643"
       orientation="78.000048,0"
       id="guide1380"
       inkscape:locked="false" />
    <sodipodi:guide
       position="0.97013831,0.97013129"
       orientation="0,78.000005"
       id="guide1382"
       inkscape:locked="false" />
    <sodipodi:guide
       position="21.607639,0.97013129"
       orientation="-78.000048,0"
       id="guide1384"
       inkscape:locked="false" />
    <sodipodi:guide
       position="21.607639,21.607643"
       orientation="0,-78.000005"
       id="guide1386"
       inkscape:locked="false" />
  </sodipodi:namedview>
  <metadata
     id="metadata828">
    <rdf:RDF>
      <cc:Work
         rdf:about="">
        <dc:format>image/svg+xml</dc:format>
        <dc:type
           rdf:resource="http://purl.org/dc/dcmitype/StillImage" />
        <dc:title></dc:title>
      </cc:Work>
    </rdf:RDF>
  </metadata>
  <g
     inkscape:label="Icon"
     inkscape:groupmode="layer"
     id="layer1"
     transform="translate(0,-274.42223)">
    <g
       transform="matrix(1.2580474,0,0,1.2580474,77.385302,-38.903104)"
       style="display:inline;stroke-width:0.794883"
       id="g1164">
      <g
         style="stroke-width:0.794883"
         id="g1154">
        <path
           style="color:#000000;font-style:normal;font-variant:normal;font-weight:normal;font-stretch:normal;font-size:medium;line-height:normal;font-family:sans-serif;font-variant-ligatures:normal;font-variant-position:normal;font-variant-caps:normal;font-variant-numeric:normal;font-variant-alternates:normal;font-variant-east-asian:normal;font-feature-settings:normal;font-variation-settings:normal;text-indent:0;text-align:start;text-decoration:none;text-decoration-line:none;text-decoration-style:solid;text-decoration-color:#000000;letter-spacing:normal;word-spacing:normal;text-transform:none;writing-mode:lr-tb;direction:ltr;text-orientation:mixed;dominant-baseline:auto;baseline-shift:baseline;text-anchor:start;white-space:normal;shape-padding:0;shape-margin:0;inline-size:0;clip-rule:nonzero;display:inline;overflow:visible;visibility:visible;isolation:auto;mix-blend-mode:normal;color-interpolation:sRGB;color-interpolation-filters:linearRGB;solid-color:#000000;solid-opacity:1;vector-effect:none;fill:#e2f0fa;fill-opacity:1;fill-rule:nonzero;stroke:none;stroke-width:0.420625;stroke-linecap:round;stroke-linejoin:round;stroke-miterlimit:4;stroke-dasharray:none;stroke-dashoffset:0;stroke-opacity:1;color-rendering:auto;image-rendering:auto;shape-rendering:auto;text-rendering:auto;enable-background:accumulate;stop-color:#000000"
           d="m -48.113281,256.70703 c -0.154121,-9.7e-4 -0.276456,0.12946 -0.265625,0.2832 l 0.07227,1.0586 c 0.0097,0.13776 0.12363,0.24492 0.261719,0.24609 0.720037,0.0251 1.539144,0.34527 1.552734,1.0625 -0.121755,0.82373 -0.642626,2.07386 -1.542968,2.11328 h -0.267578 c -0.08399,-1e-5 -0.162997,0.0399 -0.212891,0.10742 l -0.785156,1.05665 c -0.129099,0.1747 -0.0043,0.42194 0.21289,0.42187 h 0.990235 c 6.67e-4,0 0.0013,0 0.002,0 1.797865,-0.24805 3.075054,-2.05312 3.097656,-3.70312 -0.0046,-1.52164 -1.427297,-2.63395 -3.115234,-2.64649 z"
           id="path1165"
           sodipodi:nodetypes="sccccccccccccss" />
        <path
           id="path1200"
           style="color:#000000;font-style:normal;font-variant:normal;font-weight:normal;font-stretch:normal;font-size:medium;line-height:normal;font-family:sans-serif;font-variant-ligatures:normal;font-variant-position:normal;font-variant-caps:normal;font-variant-numeric:normal;font-variant-alternates:normal;font-variant-east-asian:normal;font-feature-settings:normal;font-variation-settings:normal;text-indent:0;text-align:start;text-decoration:none;text-decoration-line:none;text-decoration-style:solid;text-decoration-color:#000000;letter-spacing:normal;word-spacing:normal;text-transform:none;writing-mode:lr-tb;direction:ltr;text-orientation:mixed;dominant-baseline:auto;baseline-shift:baseline;text-anchor:start;white-space:normal;shape-padding:0;shape-margin:0;inline-size:0;clip-rule:nonzero;display:inline;overflow:visible;visibility:visible;isolation:auto;mix-blend-mode:normal;color-interpolation:sRGB;color-interpolation-filters:linearRGB;solid-color:#000000;solid-opacity:1;vector-effect:none;fill:#a3b9c9;fill-opacity:1;fill-rule:nonzero;stroke:none;stroke-width:0.420626;stroke-linecap:round;stroke-linejoin:round;stroke-miterlimit:4;stroke-dasharray:none;stroke-dashoffset:0;stroke-opacity:1;color-rendering:auto;image-rendering:auto;shape-rendering:auto;text-rendering:auto;enable-background:accumulate;stop-color:#000000"
           d="m -48.113343,256.70685 a 0.26460945,0.26460945 0 0 0 -0.265618,0.28318 l 0.07235,1.05885 a 0.26460945,0.26460945 0 0 0 0.261483,0.24598 c 0.297672,0.002 0.567301,0.0528 0.79685,0.13488 v -1.45728 a 0.26460996,0.26460996 0 0 0 -0.06149,-0.17053 c -0.257635,-0.0583 -0.52655,-0.093 -0.803569,-0.0951 z m 0.82889,4.38526 c -0.236366,0.23062 -0.498838,0.37538 -0.750859,0.37879 h -0.267168 a 0.26460945,0.26460945 0 0 0 -0.212905,0.10697 l -0.785482,1.05678 a 0.26460945,0.26460945 0 0 0 0.212905,0.4222 h 0.476457 c 0.152669,-0.10323 0.295261,-0.2146 0.425815,-0.33435 0.606232,-0.55605 0.826402,-1.16037 0.901237,-1.63039 z" />
        <path
           style="color:#000000;font-style:normal;font-variant:normal;font-weight:normal;font-stretch:normal;font-size:medium;line-height:normal;font-family:sans-serif;font-variant-ligatures:normal;font-variant-position:normal;font-variant-caps:normal;font-variant-numeric:normal;font-variant-alternates:normal;font-variant-east-asian:normal;font-feature-settings:normal;font-variation-settings:normal;text-indent:0;text-align:start;text-decoration:none;text-decoration-line:none;text-decoration-style:solid;text-decoration-color:#000000;letter-spacing:normal;word-spacing:normal;text-transform:none;writing-mode:lr-tb;direction:ltr;text-orientation:mixed;dominant-baseline:auto;baseline-shift:baseline;text-anchor:start;white-space:normal;shape-padding:0;shape-margin:0;inline-size:0;clip-rule:nonzero;display:inline;overflow:visible;visibility:visible;isolation:auto;mix-blend-mode:normal;color-interpolation:sRGB;color-interpolation-filters:linearRGB;solid-color:#000000;solid-opacity:1;vector-effect:none;fill:#9a605c;fill-opacity:1;fill-rule:nonzero;stroke:none;stroke-width:0.420626;stroke-linecap:round;stroke-linejoin:round;stroke-miterlimit:4;stroke-dasharray:none;stroke-dashoffset:0;stroke-opacity:1;color-rendering:auto;image-rendering:auto;shape-rendering:auto;text-rendering:auto;enable-background:accumulate;stop-color:#000000"
           d="m -56.375,255.11914 c -1.019745,0 -1.853516,0.83377 -1.853516,1.85352 a 0.26460996,0.26460996 0 0 0 0.265625,0.26367 h 9.507813 a 0.26460996,0.26460996 0 0 0 0.263672,-0.26367 c 0,-1.01975 -0.831818,-1.85352 -1.851563,-1.85352 -0.385417,0 -0.713817,0.20338 -0.99414,0.45313 -0.294394,-0.24329 -0.654988,-0.45313 -1.105469,-0.45313 -0.415052,0 -0.765588,0.19572 -1.066406,0.43359 -0.301002,-0.23636 -0.65005,-0.43359 -1.066407,-0.43359 -0.384901,0 -0.713937,0.20406 -0.99414,0.45313 -0.294394,-0.24329 -0.654989,-0.45313 -1.105469,-0.45313 z"
           id="path1151" />
        <path
           id="path1205"
           style="color:#000000;font-style:normal;font-variant:normal;font-weight:normal;font-stretch:normal;font-size:medium;line-height:normal;font-family:sans-serif;font-variant-ligatures:normal;font-variant-position:normal;font-variant-caps:normal;font-variant-numeric:normal;font-variant-alternates:normal;font-variant-east-asian:normal;font-feature-settings:normal;font-variation-settings:normal;text-indent:0;text-align:start;text-decoration:none;text-decoration-line:none;text-decoration-style:solid;text-decoration-color:#000000;letter-spacing:normal;word-spacing:normal;text-transform:none;writing-mode:lr-tb;direction:ltr;text-orientation:mixed;dominant-baseline:auto;baseline-shift:baseline;text-anchor:start;white-space:normal;shape-padding:0;shape-margin:0;inline-size:0;clip-rule:nonzero;display:inline;overflow:visible;visibility:visible;isolation:auto;mix-blend-mode:normal;color-interpolation:sRGB;color-interpolation-filters:linearRGB;solid-color:#000000;solid-opacity:1;vector-effect:none;fill:#734845;fill-opacity:1;fill-rule:nonzero;stroke:none;stroke-width:0.420626;stroke-linecap:round;stroke-linejoin:round;stroke-miterlimit:4;stroke-dasharray:none;stroke-dashoffset:0;stroke-opacity:1;color-rendering:auto;image-rendering:auto;shape-rendering:auto;text-rendering:auto;enable-background:accumulate;stop-color:#000000"
           d="m -50.042941,255.11932 c -0.07938,0 -0.155855,0.0105 -0.230479,0.0264 0.87815,0.14425 1.55288,0.90898 1.55288,1.82676 -2.65e-4,0.14551 -0.118036,0.26348 -0.263552,0.26407 h 0.529167 c 0.145515,-5.9e-4 0.263255,-0.11856 0.263551,-0.26407 0,-1.01975 -0.831823,-1.85312 -1.851567,-1.85312 z"
           sodipodi:nodetypes="scccccs" />
        <path
           style="color:#000000;font-style:normal;font-variant:normal;font-weight:normal;font-stretch:normal;font-size:medium;line-height:normal;font-family:sans-serif;font-variant-ligatures:normal;font-variant-position:normal;font-variant-caps:normal;font-variant-numeric:normal;font-variant-alternates:normal;font-variant-east-asian:normal;font-feature-settings:normal;font-variation-settings:normal;text-indent:0;text-align:start;text-decoration:none;text-decoration-line:none;text-decoration-style:solid;text-decoration-color:#000000;letter-spacing:normal;word-spacing:normal;text-transform:none;writing-mode:lr-tb;direction:ltr;text-orientation:mixed;dominant-baseline:auto;baseline-shift:baseline;text-anchor:start;white-space:normal;shape-padding:0;shape-margin:0;inline-size:0;clip-rule:nonzero;display:inline;overflow:visible;visibility:visible;isolation:auto;mix-blend-mode:normal;color-interpolation:sRGB;color-interpolation-filters:linearRGB;solid-color:#000000;solid-opacity:1;vector-effect:none;fill:#e2f0fa;fill-opacity:1;fill-rule:nonzero;stroke:none;stroke-width:0.420626;stroke-linecap:round;stroke-linejoin:round;stroke-miterlimit:4;stroke-dasharray:none;stroke-dashoffset:0;stroke-opacity:1;color-rendering:auto;image-rendering:auto;shape-rendering:auto;text-rendering:auto;enable-background:accumulate;stop-color:#000000"
           d="m -58.492188,256.87143 c -0.146172,5.2e-4 -0.264235,0.11946 -0.263671,0.26563 v 3.50747 c 0,0.47402 0.112754,1.32174 0.9375,2.07813 1.029678,0.94434 2.792165,1.36915 4.550781,1.36914 1.758616,-10e-6 3.52307,-0.42471 4.552734,-1.36914 0.824621,-0.75636 0.9375,-1.60413 0.9375,-2.07813 v -3.50747 c 5.68e-4,-0.14693 -0.118689,-0.26619 -0.265625,-0.26563 z"
           id="path1132"
           sodipodi:nodetypes="ccsssssccc" />
        <path
           id="path1210"
           style="color:#000000;font-style:normal;font-variant:normal;font-weight:normal;font-stretch:normal;font-size:medium;line-height:normal;font-family:sans-serif;font-variant-ligatures:normal;font-variant-position:normal;font-variant-caps:normal;font-variant-numeric:normal;font-variant-alternates:normal;font-variant-east-asian:normal;font-feature-settings:normal;font-variation-settings:normal;text-indent:0;text-align:start;text-decoration:none;text-decoration-line:none;text-decoration-style:solid;text-decoration-color:#000000;letter-spacing:normal;word-spacing:normal;text-transform:none;writing-mode:lr-tb;direction:ltr;text-orientation:mixed;dominant-baseline:auto;baseline-shift:baseline;text-anchor:start;white-space:normal;shape-padding:0;shape-margin:0;inline-size:0;clip-rule:nonzero;display:inline;overflow:visible;visibility:visible;isolation:auto;mix-blend-mode:normal;color-interpolation:sRGB;color-interpolation-filters:linearRGB;solid-color:#000000;solid-opacity:1;vector-effect:none;fill:#c8dae5;fill-opacity:1;fill-rule:nonzero;stroke:none;stroke-width:0.420626;stroke-linecap:round;stroke-linejoin:round;stroke-miterlimit:4;stroke-dasharray:none;stroke-dashoffset:0;stroke-opacity:1;color-rendering:auto;image-rendering:auto;shape-rendering:auto;text-rendering:auto;enable-background:accumulate;stop-color:#000000"
           d="m -54.259706,256.70701 v 2.31134 c 0,0.43516 -0.358074,0.79478 -0.793234,0.79478 l -0.314709,0.0129 c -0.0825,0.21655 -0.258458,0.38829 -0.476456,0.46767 0.08251,0.0295 0.169891,0.0486 0.261998,0.0486 0.337331,0 0.62937,-0.21634 0.743625,-0.51625 l 0.314708,-0.0129 c 0.435161,0 0.793234,-0.35962 0.793234,-0.79478 v -2.31134 z"
           sodipodi:nodetypes="cscccsccscc" />
        <path
           style="color:#000000;font-style:normal;font-variant:normal;font-weight:normal;font-stretch:normal;font-size:medium;line-height:normal;font-family:sans-serif;font-variant-ligatures:normal;font-variant-position:normal;font-variant-caps:normal;font-variant-numeric:normal;font-variant-alternates:normal;font-variant-east-asian:normal;font-feature-settings:normal;font-variation-settings:normal;text-indent:0;text-align:start;text-decoration:none;text-decoration-line:none;text-decoration-style:solid;text-decoration-color:#000000;letter-spacing:normal;word-spacing:normal;text-transform:none;writing-mode:lr-tb;direction:ltr;text-orientation:mixed;dominant-baseline:auto;baseline-shift:baseline;text-anchor:start;white-space:normal;shape-padding:0;shape-margin:0;inline-size:0;clip-rule:nonzero;display:inline;overflow:visible;visibility:visible;isolation:auto;mix-blend-mode:normal;color-interpolation:sRGB;color-interpolation-filters:linearRGB;solid-color:#000000;solid-opacity:1;vector-effect:none;fill:#fec872;fill-opacity:1;fill-rule:nonzero;stroke:none;stroke-width:0.420626;stroke-linecap:round;stroke-linejoin:round;stroke-miterlimit:4;stroke-dasharray:none;stroke-dashoffset:0;stroke-opacity:1;color-rendering:auto;image-rendering:auto;shape-rendering:auto;text-rendering:auto;enable-background:accumulate;stop-color:#000000"
           d="m -58.095703,264.64453 a 0.26460996,0.26460996 0 0 0 -0.1875,0.45313 l 1.058594,1.05664 a 0.26460996,0.26460996 0 0 0 0.1875,0.0781 h 8.203125 a 0.26460996,0.26460996 0 0 0 0.185546,-0.0781 l 1.058594,-1.05664 a 0.26460996,0.26460996 0 0 0 -0.1875,-0.45313 z"
           id="path1080" />
        <path
           style="color:#000000;font-style:normal;font-variant:normal;font-weight:normal;font-stretch:normal;font-size:medium;line-height:normal;font-family:sans-serif;font-variant-ligatures:normal;font-variant-position:normal;font-variant-caps:normal;font-variant-numeric:normal;font-variant-alternates:normal;font-variant-east-asian:normal;font-feature-settings:normal;font-variation-settings:normal;text-indent:0;text-align:start;text-decoration:none;text-decoration-line:none;text-decoration-style:solid;text-decoration-color:#000000;letter-spacing:normal;word-spacing:normal;text-transform:none;writing-mode:lr-tb;direction:ltr;text-orientation:mixed;dominant-baseline:auto;baseline-shift:baseline;text-anchor:start;white-space:normal;shape-padding:0;shape-margin:0;inline-size:0;clip-rule:nonzero;display:inline;overflow:visible;visibility:visible;isolation:auto;mix-blend-mode:normal;color-interpolation:sRGB;color-interpolation-filters:linearRGB;solid-color:#000000;solid-opacity:1;vector-effect:none;fill:#fed883;fill-opacity:1;fill-rule:nonzero;stroke:none;stroke-width:0.420626;stroke-linecap:round;stroke-linejoin:round;stroke-miterlimit:4;stroke-dasharray:none;stroke-dashoffset:0;stroke-opacity:1;color-rendering:auto;image-rendering:auto;shape-rendering:auto;text-rendering:auto;enable-background:accumulate;stop-color:#000000"
           d="m -59.139049,263.60421 c -0.425147,0 -0.776628,0.35148 -0.776628,0.77663 0,0.42514 0.351481,0.77472 0.776628,0.77472 h 12.406959 c 0.425147,0 0.774719,-0.34958 0.774719,-0.77472 0,-0.42515 -0.349572,-0.77663 -0.774719,-0.77663 z"
           id="path1097" />
        <path
           id="path1180"
           style="color:#000000;font-style:normal;font-variant:normal;font-weight:normal;font-stretch:normal;font-size:medium;line-height:normal;font-family:sans-serif;font-variant-ligatures:normal;font-variant-position:normal;font-variant-caps:normal;font-variant-numeric:normal;font-variant-alternates:normal;font-variant-east-asian:normal;font-feature-settings:normal;font-variation-settings:normal;text-indent:0;text-align:start;text-decoration:none;text-decoration-line:none;text-decoration-style:solid;text-decoration-color:#000000;letter-spacing:normal;word-spacing:normal;text-transform:none;writing-mode:lr-tb;direction:ltr;text-orientation:mixed;dominant-baseline:auto;baseline-shift:baseline;text-anchor:start;white-space:normal;shape-padding:0;shape-margin:0;inline-size:0;clip-rule:nonzero;display:inline;overflow:visible;visibility:visible;isolation:auto;mix-blend-mode:normal;color-interpolation:sRGB;color-interpolation-filters:linearRGB;solid-color:#000000;solid-opacity:1;vector-effect:none;fill:#ec7523;fill-opacity:1;fill-rule:nonzero;stroke:none;stroke-width:0.420626;stroke-linecap:round;stroke-linejoin:round;stroke-miterlimit:4;stroke-dasharray:none;stroke-dashoffset:0;stroke-opacity:1;color-rendering:auto;image-rendering:auto;shape-rendering:auto;text-rendering:auto;enable-background:accumulate;stop-color:#000000"
           d="m -58.190251,265.19061 0.513665,0.51263 h 9.480039 l 0.513665,-0.51314 c -0.03025,-0.0112 -0.0623,-0.0168 -0.09457,-0.0165 l -10.318229,-9e-5 z"
           sodipodi:nodetypes="ccccccc" />
        <path
           id="path1189"
           style="color:#000000;font-style:normal;font-variant:normal;font-weight:normal;font-stretch:normal;font-size:medium;line-height:normal;font-family:sans-serif;font-variant-ligatures:normal;font-variant-position:normal;font-variant-caps:normal;font-variant-numeric:normal;font-variant-alternates:normal;font-variant-east-asian:normal;font-feature-settings:normal;font-variation-settings:normal;text-indent:0;text-align:start;text-decoration:none;text-decoration-line:none;text-decoration-style:solid;text-decoration-color:#000000;letter-spacing:normal;word-spacing:normal;text-transform:none;writing-mode:lr-tb;direction:ltr;text-orientation:mixed;dominant-baseline:auto;baseline-shift:baseline;text-anchor:start;white-space:normal;shape-padding:0;shape-margin:0;inline-size:0;clip-rule:nonzero;display:inline;overflow:visible;visibility:visible;isolation:auto;mix-blend-mode:normal;color-interpolation:sRGB;color-interpolation-filters:linearRGB;solid-color:#000000;solid-opacity:1;vector-effect:none;fill:#ec7523;fill-opacity:1;fill-rule:nonzero;stroke:none;stroke-width:0.420626;stroke-linecap:round;stroke-linejoin:round;stroke-miterlimit:4;stroke-dasharray:none;stroke-dashoffset:0;stroke-opacity:1;color-rendering:auto;image-rendering:auto;shape-rendering:auto;text-rendering:auto;enable-background:accumulate;stop-color:#000000"
           d="m -59.167716,263.60034 c -0.349059,0 -0.644706,0.2371 -0.742578,0.55643 0.07133,-0.0218 0.145224,-0.037 0.223179,-0.037 h 12.465041 c 0.427129,0 0.778084,0.35298 0.778084,0.78011 0,0.0775 -0.015,0.15123 -0.03652,0.22216 0.319406,-0.0971 0.555919,-0.39211 0.555919,-0.74156 0,-0.42713 -0.350954,-0.78011 -0.778084,-0.78011 z" />
        <path
           id="path1215"
           style="color:#000000;font-style:normal;font-variant:normal;font-weight:normal;font-stretch:normal;font-size:medium;line-height:normal;font-family:sans-serif;font-variant-ligatures:normal;font-variant-position:normal;font-variant-caps:normal;font-variant-numeric:normal;font-variant-alternates:normal;font-variant-east-asian:normal;font-feature-settings:normal;font-variation-settings:normal;text-indent:0;text-align:start;text-decoration:none;text-decoration-line:none;text-decoration-style:solid;text-decoration-color:#000000;letter-spacing:normal;word-spacing:normal;text-transform:none;writing-mode:lr-tb;direction:ltr;text-orientation:mixed;dominant-baseline:auto;baseline-shift:baseline;text-anchor:start;white-space:normal;shape-padding:0;shape-margin:0;inline-size:0;clip-rule:nonzero;display:inline;overflow:visible;visibility:visible;isolation:auto;mix-blend-mode:normal;color-interpolation:sRGB;color-interpolation-filters:linearRGB;solid-color:#000000;solid-opacity:1;vector-effect:none;fill:#9a605c;fill-opacity:1;fill-rule:nonzero;stroke:none;stroke-width:0.420626;stroke-linecap:round;stroke-linejoin:round;stroke-miterlimit:4;stroke-dasharray:none;stroke-dashoffset:0;stroke-opacity:1;color-rendering:auto;image-rendering:auto;shape-rendering:auto;text-rendering:auto;enable-background:accumulate;stop-color:#000000"
           d="m -56.895752,256.65641 c -0.0025,0.0146 -0.0088,0.0281 -0.0088,0.0434 v 2.86701 c 0,0.43516 0.358071,0.79479 0.793234,0.79479 0.33733,0 0.62937,-0.21634 0.743625,-0.51625 l 0.314708,-0.0129 c 0.43516,0 0.793234,-0.35962 0.793234,-0.79478 v -2.33785 c 5.9e-5,-0.0154 -0.0063,-0.0288 -0.0088,-0.0434 z" />
      </g>
      <path
         sodipodi:nodetypes="cssscccssscccccscccsccccccsccccccccsscsssccccccsssccccssccccscscsscccccccccccscccccsssccccccsscccsscccssssccsscscscscccscscsccsccsccssssccscccccccccc"
         d="m -54.683483,249.94553 c -0.249415,0.37363 -0.318786,0.76195 -0.287322,1.11518 0.03146,0.35322 0.151212,0.67433 0.259932,0.97462 0.10872,0.30028 0.205475,0.57987 0.22841,0.83974 0.02294,0.25987 -0.01553,0.49789 -0.20102,0.77515 -0.08161,0.12141 -0.0492,0.286 0.07235,0.36742 0.121851,0.0808 0.286181,0.0475 0.366903,-0.0744 0.249936,-0.37359 0.320572,-0.76185 0.289388,-1.11518 -0.03118,-0.35332 -0.151188,-0.6722 -0.259932,-0.97255 -0.108744,-0.30035 -0.207325,-0.58188 -0.230476,-0.84181 -0.02315,-0.25992 0.01601,-0.49643 0.20102,-0.77359 0.08125,-0.12132 0.04887,-0.28552 -0.07235,-0.36691 -0.0432,-0.0292 -0.09408,-0.0451 -0.155028,-0.0452 -0.09106,0.006 -0.166153,0.0489 -0.211873,0.11756 z m 2.67821,0.76307 c -0.06264,0.26575 -0.01167,0.63752 0.03067,0.96913 0.04234,0.33162 0.07605,0.62484 0.0041,0.92966 -0.03358,0.14228 0.05459,0.28483 0.196887,0.31832 0.142441,0.0336 0.28507,-0.0549 0.318328,-0.1974 0.09766,-0.41393 0.04855,-0.78506 0.0062,-1.11673 -0.04235,-0.33167 -0.07796,-0.62331 -0.0062,-0.92811 0.03358,-0.14228 -0.05459,-0.28483 -0.224147,-0.32233 -0.159221,-0.002 -0.263231,0.0817 -0.325868,0.34746 z m -1.223005,1.86003 c 0.10645,0.43 0.189207,0.77213 0.01551,1.15187 -0.06021,0.13272 -0.0019,0.28914 0.130742,0.34985 0.133127,0.0613 0.290684,0.003 0.351398,-0.13075 0.252629,-0.55227 0.122494,-1.07007 0.01601,-1.50016 -0.106471,-0.43009 -0.189299,-0.77276 -0.01601,-1.15239 0.05986,-0.13258 0.0016,-0.28863 -0.130741,-0.34933 -0.03389,-0.0156 -0.07069,-0.0239 -0.117562,-0.024 -0.107122,0.006 -0.193361,0.0658 -0.339636,0.38641 -0.146277,0.32062 -0.01614,0.83852 0.09029,1.26852 z m -3.146575,2.55075 c -0.929251,0 -1.701732,0.69297 -1.83193,1.5875 h -0.285256 c -0.14632,2.9e-4 -0.264623,0.11929 -0.264064,0.26561 v 3.67213 c 0,0.47402 0.11318,1.32152 0.937926,2.07791 0.395679,0.36289 0.899896,0.64869 1.470195,0.86351 h -2.937288 c -0.435163,0 -0.794785,0.35963 -0.794785,0.79479 0,0.43516 0.359622,0.79323 0.794785,0.79323 h 1.078487 l 0.982368,0.9803 c 0.04953,0.0498 0.116827,0.0779 0.187069,0.078 h 8.203117 c 0.06988,-4.2e-4 0.136761,-0.0285 0.186034,-0.078 l 0.981853,-0.9803 h 1.080553 c 0.435163,0 0.792718,-0.35807 0.792718,-0.79323 0,-0.43516 -0.357555,-0.79479 -0.792718,-0.79479 h -3.600296 c 0.382365,-0.14394 0.735382,-0.31953 1.045413,-0.52916 h 1.042832 0.0021 c 0.902174,-0.0122 1.674821,-0.59424 2.218987,-1.32447 0.544168,-0.73023 0.881316,-1.61784 0.879017,-2.37867 -0.0045,-1.48319 -1.357461,-2.5747 -2.988966,-2.64066 -0.07357,-0.012 -0.149289,-0.006 -0.226343,-0.006 -0.129911,-0.89453 -0.90061,-1.5875 -1.829861,-1.5875 -0.372425,0 -0.734512,0.11535 -1.011825,0.34881 -0.288451,-0.21361 -0.669713,-0.34881 -1.087789,-0.34881 -0.398143,0 -0.769387,0.12821 -1.064535,0.34881 -0.295667,-0.22011 -0.667883,-0.34881 -1.068153,-0.34881 -0.372729,0 -0.735073,0.11601 -1.01234,0.34985 -0.288155,-0.21423 -0.668592,-0.34985 -1.087271,-0.34985 z m 1.320326,0.86093 c 0.171529,-0.21323 0.449022,-0.33177 0.77928,-0.33177 0.343916,0 0.650724,0.13291 0.878753,0.33693 0.118094,0.10393 0.285914,0.10581 0.390411,0.003 0.211786,-0.20782 0.519234,-0.34003 0.863513,-0.34003 0.367122,0 0.704778,0.15811 0.920874,0.35346 0.14491,0.10152 0.310602,0.0849 0.403074,-0.0274 0.171675,-0.21015 0.447789,-0.32607 0.775663,-0.32607 0.642567,0 1.173422,0.453 1.295527,1.05833 h -5.750552 c -0.146127,5.8e-4 -0.264123,0.11949 -0.276762,0.19255 l -0.01265,2.1887 c 0,0.15116 -0.114464,0.26562 -0.265618,0.26562 -0.151154,0 -0.263549,-0.11446 -0.263549,-0.26562 v -0.79323 c -5.29e-4,-0.14618 -0.119441,-0.26413 -0.265618,-0.26355 -0.145412,5e-4 -0.263048,0.11814 -0.263548,0.26355 v 0.79323 0.52917 c 0,0.15116 -0.114464,0.26561 -0.265618,0.26561 -0.151157,0 -0.263549,-0.11445 -0.263549,-0.26561 0.0035,-0.87994 -0.0065,-1.76845 0.0036,-2.6448 5.29e-4,-0.14613 -0.117425,-0.26505 -0.263549,-0.26562 h -1.037659 c 0.122478,-0.60533 0.655026,-1.05833 1.297596,-1.05833 l 2.4e-5,-1e-5 c 0.370263,0 0.70944,0.1604 0.919837,0.35941 0.141076,0.10423 0.308446,0.0866 0.400489,-0.0276 z m -3.17396,1.25625 h 1.323948 v 2.38073 c 0,0.43516 0.358072,0.79479 0.793234,0.79479 0.363339,0 0.671092,-0.25199 0.763778,-0.58808 0.09138,0.0373 0.190498,0.0589 0.294556,0.0589 0.43516,0 0.793234,-0.35962 0.793234,-0.79478 v -1.85157 h 5.953125 v 3.40806 c -3e-6,0.40242 -0.06551,1.04552 -0.767395,1.6893 -0.859404,0.78827 -2.524077,1.22886 -4.193543,1.22887 -1.669465,1e-5 -3.334128,-0.44068 -4.193542,-1.22887 -0.701993,-0.64381 -0.767395,-1.28686 -0.767395,-1.6893 z m 10.451041,0.0212 c 1.29326,0.13824 2.246673,0.99901 2.24999,2.09599 0.0019,0.59564 -0.292338,1.41729 -0.773078,2.06241 -0.48074,0.64511 -1.127612,1.104 -1.800923,1.11311 h -0.426847 c 0.16774,-0.18181 0.299371,-0.36524 0.401008,-0.54674 0.595463,-0.0797 1.273201,-0.49365 1.594217,-0.971 0.353656,-0.52589 0.57154,-1.14197 0.569992,-1.65623 -0.0016,-0.51425 -0.261398,-0.93855 -0.648023,-1.20096 -0.322527,-0.21891 -0.727575,-0.33559 -1.166336,-0.37207 z m 0,1.05471 c 0.348843,0.0357 0.653315,0.13304 0.869196,0.27957 0.269806,0.18312 0.414941,0.41636 0.415997,0.76533 0.0011,0.34897 -0.182028,0.91564 -0.480592,1.35961 -0.20048,0.29811 -0.56859,0.53071 -0.901753,0.65474 0.0761,-0.28241 0.09715,-0.53583 0.09715,-0.72709 z m -8.597407,3.68763 c -0.146127,-5.8e-4 -0.265049,0.11743 -0.265618,0.26355 -5.29e-4,0.14694 0.118684,0.2662 0.265618,0.26562 h 6.349481 c 0.146126,-5.8e-4 0.264123,-0.11949 0.263551,-0.26562 -5.29e-4,-0.14532 -0.118232,-0.26298 -0.263551,-0.26355 z m -2.910417,2.11511 h 12.699481 c 0.151157,0 0.263552,0.11446 0.263552,0.26562 0,0.15116 -0.112395,0.26355 -0.263552,0.26355 H -59.28527 c -0.151154,0 -0.265618,-0.11239 -0.265618,-0.26355 0,-0.15116 0.114464,-0.26562 0.265618,-0.26562 z m 1.82831,1.05885 h 9.042861 l -0.531234,0.52917 h -7.98246 z"
         style="color:#000000;font-style:normal;font-variant:normal;font-weight:normal;font-stretch:normal;font-size:medium;line-height:normal;font-family:sans-serif;font-variant-ligatures:normal;font-variant-position:normal;font-variant-caps:normal;font-variant-numeric:normal;font-variant-alternates:normal;font-variant-east-asian:normal;font-feature-settings:normal;font-variation-settings:normal;text-indent:0;text-align:start;text-decoration:none;text-decoration-line:none;text-decoration-style:solid;text-decoration-color:#000000;letter-spacing:normal;word-spacing:normal;text-transform:none;writing-mode:lr-tb;direction:ltr;text-orientation:mixed;dominant-baseline:auto;baseline-shift:baseline;text-anchor:start;white-space:normal;shape-padding:0;shape-margin:0;inline-size:0;clip-rule:nonzero;display:inline;overflow:visible;visibility:visible;opacity:1;isolation:auto;mix-blend-mode:normal;color-interpolation:sRGB;color-interpolation-filters:linearRGB;solid-color:#000000;solid-opacity:1;vector-effect:none;fill:#000000;fill-opacity:1;fill-rule:nonzero;stroke:none;stroke-width:0.420626;stroke-linecap:round;stroke-linejoin:round;stroke-miterlimit:4;stroke-dasharray:none;stroke-dashoffset:0;stroke-opacity:1;color-rendering:auto;image-rendering:auto;shape-rendering:auto;text-rendering:auto;enable-background:accumulate;stop-color:#000000;stop-opacity:1"
         id="path1184-5" />
    </g>
  </g>
</svg>
