<?xml version="1.0" encoding="utf-8"?>
<!-- Generator: Adobe Illustrator 25.1.0, SVG Export Plug-In . SVG Version: 6.00 Build 0)  -->
<svg version="1.1" xmlns="http://www.w3.org/2000/svg" xmlns:xlink="http://www.w3.org/1999/xlink" x="0px" y="0px"
	 viewBox="0 0 841.9 595.3" style="enable-background:new 0 0 841.9 595.3;" xml:space="preserve">
<style type="text/css">
	.st0{fill:#0052B4;}
	.st1{fill:#F0F0F0;}
	.st2{fill:#D80027;}
</style>
<g id="Calque_1">
</g>
<g id="Calque_3">
	<g>
		<path class="st0" d="M533.2,141.5L466,210.6l-20,20.6V106.9c6.8,0.9,13.5,2.1,20,3.7C490.6,116.5,513.3,127.1,533.2,141.5z"/>
		<g>
			<path class="st1" d="M466,110.6v100l-20,20.6V106.9C452.8,107.8,459.5,109,466,110.6z"/>
		</g>
		<g>
			<path class="st0" d="M395.9,106.9v160.2H231.2c1.1-6.8,2.5-13.5,4.3-20c6.5-24,17.5-46.1,32-65.4c0,0,0,0,0,0
				c2.4-3.2,4.9-6.3,7.5-9.3c0,0,0-0.1,0.1-0.1c5.4-6.3,11.2-12.3,17.4-17.8c0.1-0.1,0.2-0.2,0.3-0.3c5.7-5.1,11.7-9.9,17.9-14.2
				c0.2-0.1,0.4-0.3,0.6-0.4c19.2-13.4,41-23.4,64.5-29C382.4,109,389.1,107.8,395.9,106.9z"/>
			<path class="st0" d="M229.9,317.1h132.6l-19.5,20l-74.7,76.8c-1.6-2-3.1-4.1-4.5-6.2c-14.7-20.9-25.3-44.8-30.8-70.6
				C231.6,330.5,230.6,323.9,229.9,317.1z"/>
			<g>
				<path class="st1" d="M395.9,106.9v160.2H231.2c1.1-6.8,2.5-13.5,4.3-20h140.4V110.6C382.4,109,389.1,107.8,395.9,106.9z"/>
				<path class="st1" d="M362.5,317.1l-19.5,20H233c-1.4-6.5-2.4-13.2-3.1-20H362.5z"/>
			</g>
			<g>
				<path class="st1" d="M267.6,181.7C267.6,181.7,267.6,181.7,267.6,181.7c2.4-3.2,4.9-6.3,7.5-9.3c0,0,0-0.1,0.1-0.1l74,74.8
					h-16.9L267.6,181.7z"/>
				<path class="st1" d="M292.8,154.2c5.7-5.1,11.7-9.9,17.9-14.2c0.2-0.1,0.4-0.3,0.6-0.4l64.5,65.2v33.3L292.8,154.2z"/>
				<path class="st2" d="M275.1,172.3c5.4-6.3,11.2-12.3,17.4-17.8c0.1-0.1,0.2-0.2,0.3-0.3l83,83.9v9h-26.7L275.1,172.3z"/>
			</g>
			<path class="st2" d="M446,106.9v124.3l-83.5,85.9H229.9c-0.7-6.5-1-13.1-1-19.8c0-10.3,0.8-20.4,2.4-30.2h164.6V106.9
				c8.2-1.1,16.5-1.6,25-1.6h0.1C429.5,105.3,437.8,105.8,446,106.9z"/>
		</g>
	</g>
</g>
<g id="Calque_2">
	<g>
		<path class="st0" d="M345.1,392.3v81.5c-18.1-7.7-34.8-18-49.5-30.6L345.1,392.3z"/>
		<path class="st2" d="M612.2,297c0,79.5-48.2,147.6-117,176.9V238.1l67.7-69.6C593.5,202.5,612.2,247.5,612.2,297z"/>
		<path class="st1" d="M495.1,238.1v235.8c-23,9.8-48.4,15.2-75,15.2c-26.6,0-52-5.4-75-15.2v-81.5L495.1,238.1z"/>
	</g>
</g>
</svg>
